<mxfile host="app.diagrams.net" modified="2023-11-02T01:23:46.719Z" agent="Mozilla/5.0 (Windows NT 10.0; Win64; x64; rv:109.0) Gecko/20100101 Firefox/119.0" etag="igNR-vI37a3kVivlTZAW" version="22.0.8" type="github">
  <diagram name="Page-1" id="eMxRTGhnJrCXlG1Rxq2y">
    <mxGraphModel dx="880" dy="442" grid="1" gridSize="10" guides="1" tooltips="1" connect="1" arrows="1" fold="1" page="1" pageScale="1" pageWidth="850" pageHeight="1100" math="0" shadow="0">
      <root>
        <mxCell id="0" />
        <mxCell id="1" parent="0" />
        <mxCell id="tOPvW4DjYDTK1d7Psmj2-3" value="" style="edgeStyle=orthogonalEdgeStyle;rounded=0;orthogonalLoop=1;jettySize=auto;html=1;" edge="1" parent="1" source="tOPvW4DjYDTK1d7Psmj2-1">
          <mxGeometry relative="1" as="geometry">
            <mxPoint x="410" y="180" as="targetPoint" />
          </mxGeometry>
        </mxCell>
        <mxCell id="tOPvW4DjYDTK1d7Psmj2-1" value="Star" style="strokeWidth=2;html=1;shape=mxgraph.flowchart.terminator;whiteSpace=wrap;" vertex="1" parent="1">
          <mxGeometry x="360" y="70" width="100" height="40" as="geometry" />
        </mxCell>
        <mxCell id="tOPvW4DjYDTK1d7Psmj2-6" value="" style="edgeStyle=orthogonalEdgeStyle;rounded=0;orthogonalLoop=1;jettySize=auto;html=1;" edge="1" parent="1" source="tOPvW4DjYDTK1d7Psmj2-4">
          <mxGeometry relative="1" as="geometry">
            <mxPoint x="410" y="320" as="targetPoint" />
          </mxGeometry>
        </mxCell>
        <mxCell id="tOPvW4DjYDTK1d7Psmj2-4" value="&lt;div&gt;Lo&lt;/div&gt;&lt;div&gt;Phi.3,14&lt;br&gt;&lt;/div&gt;" style="shape=parallelogram;perimeter=parallelogramPerimeter;whiteSpace=wrap;html=1;fixedSize=1;" vertex="1" parent="1">
          <mxGeometry x="350" y="180" width="120" height="60" as="geometry" />
        </mxCell>
        <mxCell id="tOPvW4DjYDTK1d7Psmj2-9" value="" style="edgeStyle=orthogonalEdgeStyle;rounded=0;orthogonalLoop=1;jettySize=auto;html=1;" edge="1" parent="1" source="tOPvW4DjYDTK1d7Psmj2-7">
          <mxGeometry relative="1" as="geometry">
            <mxPoint x="410" y="460" as="targetPoint" />
          </mxGeometry>
        </mxCell>
        <mxCell id="tOPvW4DjYDTK1d7Psmj2-7" value="Lo =Phi x r x r" style="rounded=0;whiteSpace=wrap;html=1;" vertex="1" parent="1">
          <mxGeometry x="350" y="320" width="120" height="60" as="geometry" />
        </mxCell>
        <mxCell id="tOPvW4DjYDTK1d7Psmj2-13" value="" style="edgeStyle=orthogonalEdgeStyle;rounded=0;orthogonalLoop=1;jettySize=auto;html=1;" edge="1" parent="1" source="tOPvW4DjYDTK1d7Psmj2-10" target="tOPvW4DjYDTK1d7Psmj2-11">
          <mxGeometry relative="1" as="geometry" />
        </mxCell>
        <mxCell id="tOPvW4DjYDTK1d7Psmj2-10" value="Lo" style="shape=parallelogram;perimeter=parallelogramPerimeter;whiteSpace=wrap;html=1;fixedSize=1;" vertex="1" parent="1">
          <mxGeometry x="350" y="460" width="120" height="60" as="geometry" />
        </mxCell>
        <mxCell id="tOPvW4DjYDTK1d7Psmj2-11" value="end" style="strokeWidth=2;html=1;shape=mxgraph.flowchart.terminator;whiteSpace=wrap;" vertex="1" parent="1">
          <mxGeometry x="365" y="610" width="90" height="40" as="geometry" />
        </mxCell>
      </root>
    </mxGraphModel>
  </diagram>
</mxfile>
